<?xml version="1.0" standalone="no"?><!DOCTYPE svg PUBLIC "-//W3C//DTD SVG 1.1//EN" "http://www.w3.org/Graphics/SVG/1.1/DTD/svg11.dtd"><svg t="1591345774364" class="icon" viewBox="0 0 1024 1024" version="1.1" xmlns="http://www.w3.org/2000/svg" p-id="2603" xmlns:xlink="http://www.w3.org/1999/xlink" width="16" height="16"><defs><style type="text/css"></style></defs><path d="M450.815 654.258c27.524-74.744-26.714-164.06-120.347-198.464L112.44 375.517c-21.451-7.824-40.206-11.603-55.586-11.603-52.214 0-68.269 42.499-34.134 111.442l25.905 52.078c44.523 89.45 141.934 185.107 216.544 212.631a142.468 142.468 0 0 0 49.65 8.905c58.822 0 114.543-36.293 135.996-94.712zM371.078 452.69c13.223 4.858 26.714 7.15 40.475 7.15 63.952 0 129.657-50.459 157.99-127.633l80.41-218.297c25.095-67.728 8.365-107.664-36.562-107.664-17.134 0-38.587 5.801-63.276 18.08L498.036 50.23c-89.45 44.523-185.107 141.934-212.63 216.544-27.524 74.878 11.062 158.393 85.672 185.916z m630.202 99.3l-25.905-52.078c-44.523-89.586-141.934-185.108-216.544-212.766-16.46-6.206-33.19-8.905-49.784-8.905-58.96 0-114.68 36.293-136.132 94.713-27.524 74.744 26.714 164.06 120.347 198.464l218.298 80.41c21.451 7.825 40.07 11.604 55.586 11.604 52.078 0.001 68.269-42.499 34.134-111.442z m-348.628 22.802c-13.223-4.992-26.714-7.286-40.475-7.286-63.952 0-129.657 50.459-157.99 127.633l-80.41 218.027c-24.96 67.729-8.365 107.665 36.697 107.665 17.134 0 38.587-5.801 63.277-18.079l52.078-25.905c89.45-44.523 185.107-141.934 212.631-216.544 27.523-74.474-11.063-157.989-85.808-185.511z" fill="" p-id="2604"></path></svg>